<svg width="24" height="31" viewBox="0 0 24 31" fill="none" xmlns="http://www.w3.org/2000/svg">
<path d="M0 16.12C0.373333 16.3333 0.76 16.5333 1.16 16.72C1.56 16.88 1.97333 17 2.4 17.08C2.82667 17.16 3.22667 17.2 3.6 17.2C4.42667 17.2 5.12 17 5.68 16.6C6.26667 16.2 6.56 15.5733 6.56 14.72C6.56 14.5067 6.56 14.04 6.56 13.32C6.56 12.6 6.56 11.72 6.56 10.68C6.56 9.64 6.56 8.54667 6.56 7.4C6.56 6.25333 6.56 5.16 6.56 4.12C6.56 3.08 6.56 2.18667 6.56 1.44C6.56 0.693334 6.56 0.213334 6.56 0H23.16C23.16 1.04 23.16 2.4 23.16 4.08C23.16 5.76 23.16 7.48 23.16 9.24C23.16 10.0933 23.16 10.9333 23.16 11.76C23.16 12.5867 23.16 13.3733 23.16 14.12C23.16 14.84 23.16 15.5067 23.16 16.12C23.16 16.7067 23.16 17.2 23.16 17.6C23.16 17.9733 23.16 18.2267 23.16 18.36C23.16 20.68 22.7733 22.64 22 24.24C21.2267 25.8133 20.1867 27.08 18.88 28.04C17.5733 29 16.1067 29.6933 14.48 30.12C12.8533 30.5467 11.1867 30.76 9.48 30.76C7.66667 30.76 5.96 30.6 4.36 30.28C2.76 29.96 1.30667 29.4133 0 28.64V16.12Z" fill="#262330"/>
</svg>
